<svg width="31" height="7" viewBox="0 0 31 7" fill="none" xmlns="http://www.w3.org/2000/svg">
<path d="M0.333333 3.5C0.333333 4.97276 1.52724 6.16667 3 6.16667C4.47276 6.16667 5.66667 4.97276 5.66667 3.5C5.66667 2.02724 4.47276 0.833333 3 0.833333C1.52724 0.833333 0.333333 2.02724 0.333333 3.5ZM25.3333 3.5C25.3333 4.97276 26.5272 6.16667 28 6.16667C29.4728 6.16667 30.6667 4.97276 30.6667 3.5C30.6667 2.02724 29.4728 0.833333 28 0.833333C26.5272 0.833333 25.3333 2.02724 25.3333 3.5ZM3 4H28V3H3V4Z" fill="#000000"/>
</svg>
