<svg width="94" height="39" viewBox="0 0 94 39" fill="none" xmlns="http://www.w3.org/2000/svg">
<path d="M30.6161 3.96799V4.92799C29.9121 5.21599 29.1921 5.79199 28.4561 6.65599C27.7201 7.48799 26.9041 8.76799 26.0081 10.496L16.9361 28.448H14.6801L3.44806 7.66399C2.87206 6.57599 2.34406 5.85599 1.86406 5.50399C1.41606 5.15199 1.01606 4.97599 0.664062 4.97599V3.96799C1.52806 4.06399 2.40806 4.12799 3.30406 4.15999C4.23206 4.19199 5.24006 4.20799 6.32806 4.20799C7.73606 4.20799 9.25606 4.19199 10.8881 4.15999C12.5201 4.09599 14.0081 4.03199 15.3521 3.96799V4.97599C14.5521 4.97599 13.8321 5.03999 13.1921 5.16799C12.5521 5.29599 12.1041 5.53599 11.8481 5.88799C11.5921 6.20799 11.6561 6.73599 12.0401 7.47199L19.6241 22.064L18.1361 23.984L23.0801 14.048C24.2641 11.744 24.8881 9.93599 24.9521 8.62399C25.0481 7.31199 24.7281 6.38399 23.9921 5.83999C23.2881 5.26399 22.2801 4.95999 20.9681 4.92799V3.96799C22.0561 3.99999 23.0801 4.03199 24.0401 4.06399C25.0001 4.09599 25.9761 4.11199 26.9681 4.11199C27.6721 4.11199 28.3281 4.09599 28.9361 4.06399C29.5761 4.03199 30.1361 3.99999 30.6161 3.96799ZM20.3441 20.864V32.912C20.3441 34.064 20.4241 34.928 20.5841 35.504C20.7761 36.08 21.1281 36.464 21.6401 36.656C22.1521 36.848 22.9201 36.976 23.9441 37.04V38C23.0801 37.936 21.9601 37.904 20.5841 37.904C19.2401 37.872 17.8961 37.856 16.5521 37.856C15.0481 37.856 13.6241 37.872 12.2801 37.904C10.9361 37.904 9.88006 37.936 9.11206 38V37.04C10.1361 36.976 10.9041 36.848 11.4161 36.656C11.9281 36.464 12.2641 36.08 12.4241 35.504C12.6161 34.928 12.7121 34.064 12.7121 32.912V23.072L16.8881 26.048L20.3441 20.864Z" fill="black"/>
<path d="M52.8686 12.656V32.768C52.8686 34.208 53.0926 35.28 53.5406 35.984C53.9886 36.656 54.7886 36.992 55.9406 36.992V38C54.9486 37.904 53.9566 37.856 52.9646 37.856C51.6206 37.856 50.3726 37.904 49.2206 38C48.0686 38.096 46.9806 38.272 45.9566 38.528V34.208C45.1886 35.808 44.1166 36.96 42.7406 37.664C41.3966 38.336 39.8926 38.672 38.2286 38.672C36.8846 38.672 35.7966 38.496 34.9646 38.144C34.1326 37.792 33.4766 37.344 32.9966 36.8C32.4526 36.192 32.0686 35.392 31.8446 34.4C31.6206 33.408 31.5086 32.128 31.5086 30.56V18.416C31.5086 16.976 31.2846 15.92 30.8366 15.248C30.4206 14.544 29.6206 14.192 28.4366 14.192V13.184C29.4606 13.28 30.4526 13.328 31.4126 13.328C32.7566 13.328 34.0046 13.28 35.1566 13.184C36.3406 13.056 37.4286 12.88 38.4206 12.656V32.528C38.4206 33.328 38.4846 34.032 38.6126 34.64C38.7726 35.248 39.0606 35.728 39.4766 36.08C39.8926 36.4 40.5006 36.56 41.3006 36.56C42.1646 36.56 42.9326 36.32 43.6046 35.84C44.3086 35.36 44.8686 34.704 45.2846 33.872C45.7326 33.008 45.9566 32.048 45.9566 30.992V18.416C45.9566 16.976 45.7326 15.92 45.2846 15.248C44.8686 14.544 44.0686 14.192 42.8846 14.192V13.184C43.9086 13.28 44.9006 13.328 45.8606 13.328C47.2046 13.328 48.4526 13.28 49.6046 13.184C50.7886 13.056 51.8766 12.88 52.8686 12.656Z" fill="black"/>
<path d="M74.5859 12.512C75.6099 12.512 76.4419 12.736 77.0819 13.184C77.7219 13.6 78.1859 14.144 78.4739 14.816C78.7939 15.488 78.9539 16.192 78.9539 16.928C78.9539 18.112 78.6019 19.088 77.8979 19.856C77.2259 20.592 76.3299 20.96 75.2099 20.96C74.0899 20.96 73.2099 20.688 72.5699 20.144C71.9619 19.568 71.6579 18.816 71.6579 17.888C71.6579 16.992 71.8499 16.256 72.2339 15.68C72.6499 15.072 73.1619 14.56 73.7699 14.144C73.3219 14.016 72.8739 14.032 72.4259 14.192C71.8179 14.288 71.2419 14.544 70.6979 14.96C70.1539 15.344 69.6899 15.84 69.3059 16.448C68.9219 17.024 68.6179 17.664 68.3939 18.368C68.1699 19.04 68.0579 19.696 68.0579 20.336V33.056C68.0579 34.592 68.4259 35.632 69.1619 36.176C69.9299 36.72 71.0659 36.992 72.5699 36.992V38C71.8339 37.968 70.7619 37.936 69.3539 37.904C67.9459 37.84 66.4739 37.808 64.9379 37.808C63.6579 37.808 62.3619 37.84 61.0499 37.904C59.7379 37.936 58.7459 37.968 58.0739 38V36.992C59.1939 36.992 59.9779 36.752 60.4259 36.272C60.9059 35.792 61.1459 34.88 61.1459 33.536V18.416C61.1459 16.976 60.9219 15.92 60.4739 15.248C60.0579 14.544 59.2579 14.192 58.0739 14.192V13.184C59.0979 13.28 60.0899 13.328 61.0499 13.328C62.3939 13.328 63.6419 13.28 64.7939 13.184C65.9779 13.056 67.0659 12.88 68.0579 12.656V17.12C68.4419 16.256 68.9539 15.472 69.5939 14.768C70.2339 14.064 70.9699 13.52 71.8019 13.136C72.6339 12.72 73.5619 12.512 74.5859 12.512Z" fill="black"/>
<path d="M86.7202 0.799988C88.0642 0.799988 89.1202 1.13599 89.8882 1.80799C90.6882 2.44799 91.0882 3.34399 91.0882 4.49599C91.0882 5.64799 90.6882 6.55999 89.8882 7.23199C89.1202 7.87199 88.0642 8.19199 86.7202 8.19199C85.3762 8.19199 84.3042 7.87199 83.5042 7.23199C82.7362 6.55999 82.3522 5.64799 82.3522 4.49599C82.3522 3.34399 82.7362 2.44799 83.5042 1.80799C84.3042 1.13599 85.3762 0.799988 86.7202 0.799988ZM90.4642 12.656V33.536C90.4642 34.88 90.6882 35.792 91.1362 36.272C91.6162 36.752 92.4162 36.992 93.5362 36.992V38C92.9602 37.968 92.0642 37.936 90.8482 37.904C89.6322 37.84 88.4002 37.808 87.1522 37.808C85.9042 37.808 84.6402 37.84 83.3602 37.904C82.0802 37.936 81.1202 37.968 80.4802 38V36.992C81.6002 36.992 82.3842 36.752 82.8322 36.272C83.3122 35.792 83.5522 34.88 83.5522 33.536V18.416C83.5522 16.976 83.3282 15.92 82.8802 15.248C82.4642 14.544 81.6642 14.192 80.4802 14.192V13.184C81.5042 13.28 82.4962 13.328 83.4562 13.328C84.8002 13.328 86.0482 13.28 87.2002 13.184C88.3842 13.056 89.4722 12.88 90.4642 12.656Z" fill="black"/>
</svg>
